<?xml version="1.0" encoding="UTF-8" standalone="no"?>
<!-- Created with Inkscape (http://www.inkscape.org/) -->

<svg
   width="240mm"
   height="120mm"
   viewBox="0 0 240 120"
   version="1.1"
   id="svg8"
   inkscape:version="1.3.2 (091e20ef0f, 2023-11-25, custom)"
   sodipodi:docname="rasp_theorem_lec3.svg"
   xmlns:inkscape="http://www.inkscape.org/namespaces/inkscape"
   xmlns:sodipodi="http://sodipodi.sourceforge.net/DTD/sodipodi-0.dtd"
   xmlns="http://www.w3.org/2000/svg"
   xmlns:svg="http://www.w3.org/2000/svg"
   xmlns:rdf="http://www.w3.org/1999/02/22-rdf-syntax-ns#"
   xmlns:cc="http://creativecommons.org/ns#"
   xmlns:dc="http://purl.org/dc/elements/1.1/"
   xmlns:ns1="http://www.iki.fi/pav/software/textext/">
  <sodipodi:namedview
     id="base"
     pagecolor="#ffffff"
     bordercolor="#666666"
     borderopacity="1.0"
     inkscape:pageopacity="0.0"
     inkscape:pageshadow="2"
     inkscape:zoom="3.1953326"
     inkscape:cx="336.58468"
     inkscape:cy="213.90575"
     inkscape:document-units="mm"
     inkscape:current-layer="layer1"
     showgrid="false"
     showborder="true"
     width="200mm"
     showguides="true"
     inkscape:guide-bbox="true"
     inkscape:window-width="2560"
     inkscape:window-height="1417"
     inkscape:window-x="0"
     inkscape:window-y="0"
     inkscape:window-maximized="1"
     inkscape:showpageshadow="2"
     inkscape:pagecheckerboard="0"
     inkscape:deskcolor="#d1d1d1">
    <inkscape:grid
       type="xygrid"
       id="grid815"
       units="mm"
       spacingx="10"
       spacingy="10"
       empspacing="4"
       dotted="false"
       originx="0"
       originy="0"
       visible="false" />
  </sodipodi:namedview>
  <defs
     id="defs2">
    <marker
       style="overflow:visible"
       id="ArrowWide"
       refX="0"
       refY="0"
       orient="auto-start-reverse"
       inkscape:stockid="Wide arrow"
       markerWidth="1"
       markerHeight="1"
       viewBox="0 0 1 1"
       inkscape:isstock="true"
       inkscape:collect="always"
       preserveAspectRatio="xMidYMid">
      <path
         style="fill:none;stroke:context-stroke;stroke-width:1;stroke-linecap:butt"
         d="M 3,-3 0,0 3,3"
         transform="rotate(180,0.125,0)"
         sodipodi:nodetypes="ccc"
         id="path6" />
    </marker>
  </defs>
  <metadata
     id="metadata5">
    <rdf:RDF>
      <cc:Work
         rdf:about="">
        <dc:format>image/svg+xml</dc:format>
        <dc:type
           rdf:resource="http://purl.org/dc/dcmitype/StillImage" />
        <dc:title />
      </cc:Work>
    </rdf:RDF>
  </metadata>
  <g
     inkscape:label="Layer 1"
     inkscape:groupmode="layer"
     id="layer1"
     transform="translate(0, -177)">
    <path
       style="fill:#008000;fill-opacity:0;fill-rule:evenodd;stroke:#000000;stroke-width:0.4;stroke-dasharray:none;paint-order:stroke fill markers;marker-end:url(#ArrowWide)"
       d="M 71.955254,253.18608 H 127.28806"
       id="path2" />
    <path
       style="fill:#000000;fill-opacity:1;fill-rule:evenodd;stroke:#000000;stroke-width:0.4;stroke-dasharray:0.4, 0.4;stroke-dashoffset:0;paint-order:stroke fill markers"
       d="M 93.368566,253.22822 V 236.45763"
       id="path3"
       sodipodi:nodetypes="cc" />
    <path
       style="fill:#000000;fill-opacity:1;fill-rule:evenodd;stroke:#000000;stroke-width:0.4;stroke-dasharray:0.4, 0.4;stroke-dashoffset:0;paint-order:stroke fill markers"
       d="M 72.369271,236.78024 H 93.166323"
       id="path4"
       sodipodi:nodetypes="cc" />
    <g
       transform="matrix(0.423334,0,0,0.423334,80.853781,245.06935)"
       ns1:version="1.9.0"
       ns1:texconverter="pdflatex"
       ns1:pdfconverter="inkscape"
       ns1:text="$$\\varnothing$$"
       ns1:preamble="/home/buyolitsez/.config/inkscape/extensions/textext/default_packages.tex"
       ns1:scale="1.2"
       ns1:alignment="middle center"
       ns1:stroke-to-path="0"
       ns1:inkscapeversion="1.3.2"
       id="g2526"
       ns1:jacobian_sqrt="0.423334">
      <defs
         id="id-a164d022-3ebf-4fe8-81f0-ca23e2b080a2">
        <g
           id="id-430a5272-d6f9-4f47-bec0-79101aab6aed">
          <g
             id="id-87047397-56d1-424e-ba6a-776d93995260">
            <path
               d="M 7.046875,-5.40625 C 7.1875,-5.53125 7.1875,-5.59375 7.1875,-5.625 c 0,-0.203125 -0.171875,-0.203125 -0.203125,-0.203125 -0.0625,0 -0.09375,0.015625 -0.28125,0.171875 L 5.9375,-4.984375 C 5.734375,-5.203125 5,-5.828125 3.875,-5.828125 c -1.59375,0 -2.921875,1.265625 -2.921875,2.921875 0,0.9375 0.375,1.484375 0.578125,1.765625 -0.15625,0.15625 -0.171875,0.15625 -0.75,0.671875 -0.203125,0.171875 -0.21875,0.203125 -0.21875,0.296875 0,0.109375 0.078125,0.1875 0.1875,0.1875 0.078125,0 0.09375,0 0.28125,-0.171875 l 0.765625,-0.671875 c 0.09375,0.09375 0.828125,0.84375 2.078125,0.84375 1.6875,0 2.921875,-1.375 2.921875,-2.921875 0,-0.921875 -0.390625,-1.5 -0.59375,-1.765625 C 6.21875,-4.6875 6.28125,-4.734375 6.3125,-4.78125 Z m -5.21875,4.015625 C 1.34375,-2.078125 1.34375,-2.6875 1.34375,-2.90625 1.34375,-4.34375 2.5,-5.4375 3.875,-5.4375 c 1.0625,0 1.65625,0.609375 1.75,0.71875 z m 4.078125,-3.03125 c 0.328125,0.4375 0.5,0.9375 0.5,1.515625 0,1.4375 -1.15625,2.53125 -2.53125,2.53125 -1.0625,0 -1.65625,-0.609375 -1.765625,-0.71875 z m 0,0"
               id="id-7ae0980f-d34d-44f4-b1fc-60b068f18b15" />
          </g>
        </g>
      </defs>
      <g
         fill="#000000"
         fill-opacity="1"
         id="id-fab8a30a-b7ec-4273-a1ca-cc22dae69391"
         transform="translate(-302.312,-140.892)">
        <g
           transform="translate(301.75,146.72)"
           id="g2989">
          <path
             d="M 7.046875,-5.40625 C 7.1875,-5.53125 7.1875,-5.59375 7.1875,-5.625 c 0,-0.203125 -0.171875,-0.203125 -0.203125,-0.203125 -0.0625,0 -0.09375,0.015625 -0.28125,0.171875 L 5.9375,-4.984375 C 5.734375,-5.203125 5,-5.828125 3.875,-5.828125 c -1.59375,0 -2.921875,1.265625 -2.921875,2.921875 0,0.9375 0.375,1.484375 0.578125,1.765625 -0.15625,0.15625 -0.171875,0.15625 -0.75,0.671875 -0.203125,0.171875 -0.21875,0.203125 -0.21875,0.296875 0,0.109375 0.078125,0.1875 0.1875,0.1875 0.078125,0 0.09375,0 0.28125,-0.171875 l 0.765625,-0.671875 c 0.09375,0.09375 0.828125,0.84375 2.078125,0.84375 1.6875,0 2.921875,-1.375 2.921875,-2.921875 0,-0.921875 -0.390625,-1.5 -0.59375,-1.765625 C 6.21875,-4.6875 6.28125,-4.734375 6.3125,-4.78125 Z m -5.21875,4.015625 C 1.34375,-2.078125 1.34375,-2.6875 1.34375,-2.90625 1.34375,-4.34375 2.5,-5.4375 3.875,-5.4375 c 1.0625,0 1.65625,0.609375 1.75,0.71875 z m 4.078125,-3.03125 c 0.328125,0.4375 0.5,0.9375 0.5,1.515625 0,1.4375 -1.15625,2.53125 -2.53125,2.53125 -1.0625,0 -1.65625,-0.609375 -1.765625,-0.71875 z m 0,0"
             id="id-5822794e-3fe1-4172-8734-9f3513e50328" />
        </g>
      </g>
    </g>
    <g
       transform="matrix(0.423334,0,0,0.423334,101.11393,240.26563)"
       ns1:version="1.9.0"
       ns1:texconverter="pdflatex"
       ns1:pdfconverter="inkscape"
       ns1:text="$$1$$"
       ns1:preamble="/home/buyolitsez/.config/inkscape/extensions/textext/default_packages.tex"
       ns1:scale="1.2"
       ns1:alignment="middle center"
       ns1:stroke-to-path="0"
       ns1:inkscapeversion="1.3.2"
       id="g6456"
       ns1:jacobian_sqrt="0.423334">
      <defs
         id="id-c12f1a95-2b59-4ee2-ab78-79e9ec5c2363">
        <g
           id="id-8421e4e5-dc2e-4364-9980-6d41b6be7c0c">
          <g
             id="id-63d001c0-5890-4e5f-9f99-3ae19e172626">
            <path
               d="m 2.9375,-6.375 c 0,-0.25 0,-0.265625 -0.234375,-0.265625 C 2.078125,-6 1.203125,-6 0.890625,-6 v 0.3125 c 0.203125,0 0.78125,0 1.296875,-0.265625 v 5.171875 c 0,0.359375 -0.03125,0.46875 -0.921875,0.46875 h -0.3125 V 0 c 0.34375,-0.03125 1.203125,-0.03125 1.609375,-0.03125 0.390625,0 1.265625,0 1.609375,0.03125 v -0.3125 h -0.3125 c -0.90625,0 -0.921875,-0.109375 -0.921875,-0.46875 z m 0,0"
               id="id-60bbfce6-52e3-4084-a114-bc5c72203554" />
          </g>
        </g>
      </defs>
      <g
         fill="#000000"
         fill-opacity="1"
         id="id-0a39c965-e15d-4f96-b2c8-35647fb16cb6"
         transform="translate(-304.024,-140.079)">
        <g
           transform="translate(303.133,146.72)"
           id="g1116">
          <path
             d="m 2.9375,-6.375 c 0,-0.25 0,-0.265625 -0.234375,-0.265625 C 2.078125,-6 1.203125,-6 0.890625,-6 v 0.3125 c 0.203125,0 0.78125,0 1.296875,-0.265625 v 5.171875 c 0,0.359375 -0.03125,0.46875 -0.921875,0.46875 h -0.3125 V 0 c 0.34375,-0.03125 1.203125,-0.03125 1.609375,-0.03125 0.390625,0 1.265625,0 1.609375,0.03125 v -0.3125 h -0.3125 c -0.90625,0 -0.921875,-0.109375 -0.921875,-0.46875 z m 0,0"
             id="id-f4d35c3d-c570-40c8-95cf-63f4b6eecd03" />
        </g>
      </g>
    </g>
    <g
       transform="matrix(0.423334,0,0,0.423334,83.382767,225.05383)"
       ns1:version="1.9.0"
       ns1:texconverter="pdflatex"
       ns1:pdfconverter="inkscape"
       ns1:text="$$2$$"
       ns1:preamble="/home/buyolitsez/.config/inkscape/extensions/textext/default_packages.tex"
       ns1:scale="1.2"
       ns1:alignment="middle center"
       ns1:stroke-to-path="0"
       ns1:inkscapeversion="1.3.2"
       id="g4370"
       ns1:jacobian_sqrt="0.423334">
      <defs
         id="id-0c817c6e-3d60-427c-836e-5bbd4856397b">
        <g
           id="id-7d68213b-393d-42fe-b893-1ff1fc35bb02">
          <g
             id="id-200200c5-f147-42be-8b21-3f6493ce38d1">
            <path
               d="m 1.265625,-0.765625 1.0625,-1.03125 c 1.546875,-1.375 2.140625,-1.90625 2.140625,-2.90625 0,-1.140625 -0.890625,-1.9375 -2.109375,-1.9375 -1.125,0 -1.859375,0.921875 -1.859375,1.8125 0,0.546875 0.5,0.546875 0.53125,0.546875 0.171875,0 0.515625,-0.109375 0.515625,-0.53125 0,-0.25 -0.1875,-0.515625 -0.53125,-0.515625 -0.078125,0 -0.09375,0 -0.125,0.015625 0.21875,-0.65625 0.765625,-1.015625 1.34375,-1.015625 0.90625,0 1.328125,0.8125 1.328125,1.625 C 3.5625,-3.90625 3.078125,-3.125 2.515625,-2.5 l -1.90625,2.125 C 0.5,-0.265625 0.5,-0.234375 0.5,0 H 4.203125 L 4.46875,-1.734375 H 4.234375 C 4.171875,-1.4375 4.109375,-1 4,-0.84375 3.9375,-0.765625 3.28125,-0.765625 3.0625,-0.765625 Z m 0,0"
               id="id-289454d4-6091-4a0f-aa72-131de55fb554" />
          </g>
        </g>
      </defs>
      <g
         fill="#000000"
         fill-opacity="1"
         id="id-b17f3906-1c04-4cc2-baf9-5a2096fcdaa6"
         transform="translate(-303.633,-140.079)">
        <g
           transform="translate(303.133,146.72)"
           id="g978">
          <path
             d="m 1.265625,-0.765625 1.0625,-1.03125 c 1.546875,-1.375 2.140625,-1.90625 2.140625,-2.90625 0,-1.140625 -0.890625,-1.9375 -2.109375,-1.9375 -1.125,0 -1.859375,0.921875 -1.859375,1.8125 0,0.546875 0.5,0.546875 0.53125,0.546875 0.171875,0 0.515625,-0.109375 0.515625,-0.53125 0,-0.25 -0.1875,-0.515625 -0.53125,-0.515625 -0.078125,0 -0.09375,0 -0.125,0.015625 0.21875,-0.65625 0.765625,-1.015625 1.34375,-1.015625 0.90625,0 1.328125,0.8125 1.328125,1.625 C 3.5625,-3.90625 3.078125,-3.125 2.515625,-2.5 l -1.90625,2.125 C 0.5,-0.265625 0.5,-0.234375 0.5,0 H 4.203125 L 4.46875,-1.734375 H 4.234375 C 4.171875,-1.4375 4.109375,-1 4,-0.84375 3.9375,-0.765625 3.28125,-0.765625 3.0625,-0.765625 Z m 0,0"
             id="id-2aca1eca-879e-450d-b137-3edff457e748" />
        </g>
      </g>
    </g>
    <g
       transform="matrix(0.423334,0,0,0.423334,111.53485,254.71754)"
       ns1:version="1.9.0"
       ns1:texconverter="pdflatex"
       ns1:pdfconverter="inkscape"
       ns1:text="$$1$$"
       ns1:preamble="/home/buyolitsez/.config/inkscape/extensions/textext/default_packages.tex"
       ns1:scale="1.2"
       ns1:alignment="middle center"
       ns1:stroke-to-path="0"
       ns1:inkscapeversion="1.3.2"
       id="g9583"
       ns1:jacobian_sqrt="0.423334">
      <defs
         id="id-455e59ae-0ba3-4e03-a6b5-8d73140b8948">
        <g
           id="id-fe546131-c5c7-4880-960c-9d74c493ec7b">
          <g
             id="id-b7cdb7e6-e517-4dcf-add7-a50f962e9ecc">
            <path
               d="m 2.9375,-6.375 c 0,-0.25 0,-0.265625 -0.234375,-0.265625 C 2.078125,-6 1.203125,-6 0.890625,-6 v 0.3125 c 0.203125,0 0.78125,0 1.296875,-0.265625 v 5.171875 c 0,0.359375 -0.03125,0.46875 -0.921875,0.46875 h -0.3125 V 0 c 0.34375,-0.03125 1.203125,-0.03125 1.609375,-0.03125 0.390625,0 1.265625,0 1.609375,0.03125 v -0.3125 h -0.3125 c -0.90625,0 -0.921875,-0.109375 -0.921875,-0.46875 z m 0,0"
               id="id-b66b0107-5a20-4fce-a4af-825656d98ceb" />
          </g>
        </g>
      </defs>
      <g
         fill="#000000"
         fill-opacity="1"
         id="id-4499f98c-74dd-467b-9978-2851db83de85"
         transform="translate(-304.024,-140.079)">
        <g
           transform="translate(303.133,146.72)"
           id="g9762">
          <path
             d="m 2.9375,-6.375 c 0,-0.25 0,-0.265625 -0.234375,-0.265625 C 2.078125,-6 1.203125,-6 0.890625,-6 v 0.3125 c 0.203125,0 0.78125,0 1.296875,-0.265625 v 5.171875 c 0,0.359375 -0.03125,0.46875 -0.921875,0.46875 h -0.3125 V 0 c 0.34375,-0.03125 1.203125,-0.03125 1.609375,-0.03125 0.390625,0 1.265625,0 1.609375,0.03125 v -0.3125 h -0.3125 c -0.90625,0 -0.921875,-0.109375 -0.921875,-0.46875 z m 0,0"
             id="id-0c9c2819-f664-4399-9cb2-491d171da099" />
        </g>
      </g>
    </g>
    <g
       transform="matrix(0.423334,0,0,0.423334,67.859101,212.08922)"
       ns1:version="1.9.0"
       ns1:texconverter="pdflatex"
       ns1:pdfconverter="inkscape"
       ns1:text="$$1$$"
       ns1:preamble="/home/buyolitsez/.config/inkscape/extensions/textext/default_packages.tex"
       ns1:scale="1.2"
       ns1:alignment="middle center"
       ns1:stroke-to-path="0"
       ns1:inkscapeversion="1.3.2"
       id="g3025"
       ns1:jacobian_sqrt="0.423334">
      <defs
         id="id-a89f7bcf-3bcb-48fe-ae72-9a82549b5139">
        <g
           id="id-3935cf5f-c9bd-4727-99b2-c72b2008746a">
          <g
             id="id-182db2c5-5ad5-4cf4-a61d-5a5342a8fc64">
            <path
               d="m 2.9375,-6.375 c 0,-0.25 0,-0.265625 -0.234375,-0.265625 C 2.078125,-6 1.203125,-6 0.890625,-6 v 0.3125 c 0.203125,0 0.78125,0 1.296875,-0.265625 v 5.171875 c 0,0.359375 -0.03125,0.46875 -0.921875,0.46875 h -0.3125 V 0 c 0.34375,-0.03125 1.203125,-0.03125 1.609375,-0.03125 0.390625,0 1.265625,0 1.609375,0.03125 v -0.3125 h -0.3125 c -0.90625,0 -0.921875,-0.109375 -0.921875,-0.46875 z m 0,0"
               id="id-cf8f47b9-dd17-49d0-8119-79505e21c680" />
          </g>
        </g>
      </defs>
      <g
         fill="#000000"
         fill-opacity="1"
         id="id-3370c41d-648f-4cab-b335-212e4eb4855f"
         transform="translate(-304.024,-140.079)">
        <g
           transform="translate(303.133,146.72)"
           id="g5440">
          <path
             d="m 2.9375,-6.375 c 0,-0.25 0,-0.265625 -0.234375,-0.265625 C 2.078125,-6 1.203125,-6 0.890625,-6 v 0.3125 c 0.203125,0 0.78125,0 1.296875,-0.265625 v 5.171875 c 0,0.359375 -0.03125,0.46875 -0.921875,0.46875 h -0.3125 V 0 c 0.34375,-0.03125 1.203125,-0.03125 1.609375,-0.03125 0.390625,0 1.265625,0 1.609375,0.03125 v -0.3125 h -0.3125 c -0.90625,0 -0.921875,-0.109375 -0.921875,-0.46875 z m 0,0"
             id="id-ea886015-b049-4f6e-8a75-7f878cd56b88" />
        </g>
      </g>
    </g>
    <g
       transform="matrix(0.423334,0,0,0.423334,126.91883,255.82554)"
       ns1:version="1.9.0"
       ns1:texconverter="pdflatex"
       ns1:pdfconverter="inkscape"
       ns1:text="$$\\theta_1$$"
       ns1:preamble="/home/buyolitsez/.config/inkscape/extensions/textext/default_packages.tex"
       ns1:scale="1.2"
       ns1:alignment="middle center"
       ns1:stroke-to-path="0"
       ns1:inkscapeversion="1.3.2"
       id="g2457"
       ns1:jacobian_sqrt="0.423334">
      <defs
         id="id-49754f3c-e93f-474f-bd55-c1dbb109b69d">
        <g
           id="id-c3aa59e9-430a-4e76-96ec-470bb2c29ba7">
          <g
             id="id-f2855962-da8d-4904-8f6e-c0a0466947d4">
            <path
               d="m 4.53125,-4.984375 c 0,-0.65625 -0.171875,-2.046875 -1.1875,-2.046875 -1.390625,0 -2.921875,2.8125 -2.921875,5.09375 0,0.9375 0.28125,2.046875 1.1875,2.046875 1.40625,0 2.921875,-2.859375 2.921875,-5.09375 z M 1.46875,-3.625 C 1.640625,-4.25 1.84375,-5.046875 2.25,-5.765625 2.515625,-6.25 2.875,-6.8125 3.328125,-6.8125 c 0.484375,0 0.546875,0.640625 0.546875,1.203125 0,0.5 -0.078125,1 -0.3125,1.984375 z m 2,0.328125 C 3.359375,-2.84375 3.15625,-2 2.765625,-1.28125 c -0.34375,0.6875 -0.71875,1.171875 -1.15625,1.171875 -0.328125,0 -0.53125,-0.296875 -0.53125,-1.21875 0,-0.421875 0.0625,-1 0.3125,-1.96875 z m 0,0"
               id="id-c8fc58bd-f955-47fe-a927-9e02889b2de7" />
          </g>
          <g
             id="id-07672c7a-f1e9-47ca-8978-aef4aebfd860">
            <path
               d="m 2.328125,-4.4375 c 0,-0.1875 0,-0.1875 -0.203125,-0.1875 -0.453125,0.4375 -1.078125,0.4375 -1.359375,0.4375 v 0.25 c 0.15625,0 0.625,0 1,-0.1875 v 3.546875 c 0,0.234375 0,0.328125 -0.6875,0.328125 H 0.8125 V 0 c 0.125,0 0.984375,-0.03125 1.234375,-0.03125 0.21875,0 1.09375,0.03125 1.25,0.03125 V -0.25 H 3.03125 c -0.703125,0 -0.703125,-0.09375 -0.703125,-0.328125 z m 0,0"
               id="id-1cb9bf6f-4f4d-43c0-8afa-e3df5b6f6d88" />
          </g>
        </g>
      </defs>
      <g
         fill="#000000"
         fill-opacity="1"
         id="id-52f811bb-4d67-431c-a207-aec29f4a4b38"
         transform="translate(-301.473,-139.689)">
        <g
           transform="translate(301.051,146.72)"
           id="g2883">
          <path
             d="m 4.53125,-4.984375 c 0,-0.65625 -0.171875,-2.046875 -1.1875,-2.046875 -1.390625,0 -2.921875,2.8125 -2.921875,5.09375 0,0.9375 0.28125,2.046875 1.1875,2.046875 1.40625,0 2.921875,-2.859375 2.921875,-5.09375 z M 1.46875,-3.625 C 1.640625,-4.25 1.84375,-5.046875 2.25,-5.765625 2.515625,-6.25 2.875,-6.8125 3.328125,-6.8125 c 0.484375,0 0.546875,0.640625 0.546875,1.203125 0,0.5 -0.078125,1 -0.3125,1.984375 z m 2,0.328125 C 3.359375,-2.84375 3.15625,-2 2.765625,-1.28125 c -0.34375,0.6875 -0.71875,1.171875 -1.15625,1.171875 -0.328125,0 -0.53125,-0.296875 -0.53125,-1.21875 0,-0.421875 0.0625,-1 0.3125,-1.96875 z m 0,0"
             id="id-0e783f50-1105-4276-9c8f-e0797e083da4" />
        </g>
      </g>
      <g
         fill="#000000"
         fill-opacity="1"
         id="id-f3618c9d-d120-476f-acfe-fa4e7b1917a1"
         transform="translate(-301.473,-139.689)">
        <g
           transform="translate(305.728,148.214)"
           id="g1131">
          <path
             d="m 2.328125,-4.4375 c 0,-0.1875 0,-0.1875 -0.203125,-0.1875 -0.453125,0.4375 -1.078125,0.4375 -1.359375,0.4375 v 0.25 c 0.15625,0 0.625,0 1,-0.1875 v 3.546875 c 0,0.234375 0,0.328125 -0.6875,0.328125 H 0.8125 V 0 c 0.125,0 0.984375,-0.03125 1.234375,-0.03125 0.21875,0 1.09375,0.03125 1.25,0.03125 V -0.25 H 3.03125 c -0.703125,0 -0.703125,-0.09375 -0.703125,-0.328125 z m 0,0"
             id="id-403f2ff4-2423-4963-8932-e80923db3082" />
        </g>
      </g>
    </g>
    <g
       transform="matrix(0.423334,0,0,0.423334,65.346896,199.33408)"
       ns1:version="1.9.0"
       ns1:texconverter="pdflatex"
       ns1:pdfconverter="inkscape"
       ns1:text="$$\\theta_2$$"
       ns1:preamble="/home/buyolitsez/.config/inkscape/extensions/textext/default_packages.tex"
       ns1:scale="1.2"
       ns1:alignment="middle center"
       ns1:stroke-to-path="0"
       ns1:inkscapeversion="1.3.2"
       id="g3650"
       ns1:jacobian_sqrt="0.423334">
      <defs
         id="id-d38dccb7-b70d-4119-ad53-b7d57bf3b45f">
        <g
           id="id-66397378-f022-40fd-8397-b179c700f482">
          <g
             id="id-0d88c181-a315-4e4a-baa6-556ac4869ce3">
            <path
               d="m 4.53125,-4.984375 c 0,-0.65625 -0.171875,-2.046875 -1.1875,-2.046875 -1.390625,0 -2.921875,2.8125 -2.921875,5.09375 0,0.9375 0.28125,2.046875 1.1875,2.046875 1.40625,0 2.921875,-2.859375 2.921875,-5.09375 z M 1.46875,-3.625 C 1.640625,-4.25 1.84375,-5.046875 2.25,-5.765625 2.515625,-6.25 2.875,-6.8125 3.328125,-6.8125 c 0.484375,0 0.546875,0.640625 0.546875,1.203125 0,0.5 -0.078125,1 -0.3125,1.984375 z m 2,0.328125 C 3.359375,-2.84375 3.15625,-2 2.765625,-1.28125 c -0.34375,0.6875 -0.71875,1.171875 -1.15625,1.171875 -0.328125,0 -0.53125,-0.296875 -0.53125,-1.21875 0,-0.421875 0.0625,-1 0.3125,-1.96875 z m 0,0"
               id="id-7dd0990b-6da4-42f2-b97d-b04c310c6bb6" />
          </g>
          <g
             id="id-e41e6cac-d37a-4906-8e79-590d2127bd78">
            <path
               d="M 3.515625,-1.265625 H 3.28125 c -0.015625,0.15625 -0.09375,0.5625 -0.1875,0.625 C 3.046875,-0.59375 2.515625,-0.59375 2.40625,-0.59375 H 1.125 c 0.734375,-0.640625 0.984375,-0.84375 1.390625,-1.171875 0.515625,-0.40625 1,-0.84375 1,-1.5 0,-0.84375 -0.734375,-1.359375 -1.625,-1.359375 -0.859375,0 -1.453125,0.609375 -1.453125,1.25 0,0.34375 0.296875,0.390625 0.375,0.390625 0.15625,0 0.359375,-0.125 0.359375,-0.375 0,-0.125 -0.046875,-0.375 -0.40625,-0.375 C 0.984375,-4.21875 1.453125,-4.375 1.78125,-4.375 c 0.703125,0 1.0625,0.546875 1.0625,1.109375 0,0.609375 -0.4375,1.078125 -0.65625,1.328125 L 0.515625,-0.265625 C 0.4375,-0.203125 0.4375,-0.1875 0.4375,0 h 2.875 z m 0,0"
               id="id-21b5a5cc-0307-40e6-8e24-e020758758f1" />
          </g>
        </g>
      </defs>
      <g
         fill="#000000"
         fill-opacity="1"
         id="id-c215c1ea-7882-4af3-9ec5-59db5532c59f"
         transform="translate(-301.473,-139.689)">
        <g
           transform="translate(301.051,146.72)"
           id="g4928">
          <path
             d="m 4.53125,-4.984375 c 0,-0.65625 -0.171875,-2.046875 -1.1875,-2.046875 -1.390625,0 -2.921875,2.8125 -2.921875,5.09375 0,0.9375 0.28125,2.046875 1.1875,2.046875 1.40625,0 2.921875,-2.859375 2.921875,-5.09375 z M 1.46875,-3.625 C 1.640625,-4.25 1.84375,-5.046875 2.25,-5.765625 2.515625,-6.25 2.875,-6.8125 3.328125,-6.8125 c 0.484375,0 0.546875,0.640625 0.546875,1.203125 0,0.5 -0.078125,1 -0.3125,1.984375 z m 2,0.328125 C 3.359375,-2.84375 3.15625,-2 2.765625,-1.28125 c -0.34375,0.6875 -0.71875,1.171875 -1.15625,1.171875 -0.328125,0 -0.53125,-0.296875 -0.53125,-1.21875 0,-0.421875 0.0625,-1 0.3125,-1.96875 z m 0,0"
             id="id-77b95ee0-4c73-4898-90d7-465ad6d7ea5e" />
        </g>
      </g>
      <g
         fill="#000000"
         fill-opacity="1"
         id="id-08f94f5f-b2ff-4053-9965-386b4834aed2"
         transform="translate(-301.473,-139.689)">
        <g
           transform="translate(305.728,148.214)"
           id="g9497">
          <path
             d="M 3.515625,-1.265625 H 3.28125 c -0.015625,0.15625 -0.09375,0.5625 -0.1875,0.625 C 3.046875,-0.59375 2.515625,-0.59375 2.40625,-0.59375 H 1.125 c 0.734375,-0.640625 0.984375,-0.84375 1.390625,-1.171875 0.515625,-0.40625 1,-0.84375 1,-1.5 0,-0.84375 -0.734375,-1.359375 -1.625,-1.359375 -0.859375,0 -1.453125,0.609375 -1.453125,1.25 0,0.34375 0.296875,0.390625 0.375,0.390625 0.15625,0 0.359375,-0.125 0.359375,-0.375 0,-0.125 -0.046875,-0.375 -0.40625,-0.375 C 0.984375,-4.21875 1.453125,-4.375 1.78125,-4.375 c 0.703125,0 1.0625,0.546875 1.0625,1.109375 0,0.609375 -0.4375,1.078125 -0.65625,1.328125 L 0.515625,-0.265625 C 0.4375,-0.203125 0.4375,-0.1875 0.4375,0 h 2.875 z m 0,0"
             id="id-598400d4-db75-4ef0-8e0d-4974f9d7bef6" />
        </g>
      </g>
    </g>
    <path
       style="fill:#008000;fill-opacity:0;fill-rule:evenodd;stroke:#000000;stroke-width:0.4;stroke-dasharray:none;marker-end:url(#ArrowWide);paint-order:stroke fill markers"
       d="M 72.154574,253.38021 V 198.04706"
       id="path8" />
    <path
       style="fill:#000000;fill-opacity:1;fill-rule:evenodd;stroke:#000000;stroke-width:0.4;stroke-dasharray:0.4, 0.4;stroke-dashoffset:0;paint-order:stroke fill markers"
       d="m 109.62312,253.22822 0,-37.03946"
       id="path9"
       sodipodi:nodetypes="cc" />
    <path
       style="fill:#000000;fill-opacity:1;fill-rule:evenodd;stroke:#000000;stroke-width:0.4;stroke-dasharray:0.4, 0.4;stroke-dashoffset:0;paint-order:stroke fill markers"
       d="M 109.81929,215.68422 H 72.239732"
       id="path10"
       sodipodi:nodetypes="cc" />
    <path
       style="fill:#000000;fill-opacity:0;fill-rule:evenodd;stroke:#000000;stroke-width:0.4;paint-order:stroke fill markers;stroke-dasharray:0.40000001,0.40000001;stroke-dashoffset:0"
       d="m 93.076791,236.67966 16.551229,-20.9288"
       id="path1" />
    <g
       transform="matrix(0.423334,0,0,0.423334,92.4748,254.73081)"
       ns1:version="1.9.0"
       ns1:texconverter="pdflatex"
       ns1:pdfconverter="inkscape"
       ns1:text="$$\\frac 1 2$$"
       ns1:preamble="/home/buyolitsez/.config/inkscape/extensions/textext/default_packages.tex"
       ns1:scale="1.2"
       ns1:alignment="middle center"
       ns1:stroke-to-path="0"
       ns1:inkscapeversion="1.3.2"
       id="g8566"
       ns1:jacobian_sqrt="0.423334">
      <defs
         id="id-35ca5629-1404-4744-965d-c4e146030f80">
        <g
           id="id-22a410f9-cd6d-43c0-a784-8c9a5b302df8">
          <g
             id="id-b888b993-26ca-4287-a8f5-bafae68a8a69">
            <path
               d="m 2.9375,-6.375 c 0,-0.25 0,-0.265625 -0.234375,-0.265625 C 2.078125,-6 1.203125,-6 0.890625,-6 v 0.3125 c 0.203125,0 0.78125,0 1.296875,-0.265625 v 5.171875 c 0,0.359375 -0.03125,0.46875 -0.921875,0.46875 h -0.3125 V 0 c 0.34375,-0.03125 1.203125,-0.03125 1.609375,-0.03125 0.390625,0 1.265625,0 1.609375,0.03125 v -0.3125 h -0.3125 c -0.90625,0 -0.921875,-0.109375 -0.921875,-0.46875 z m 0,0"
               id="id-22ac1041-bb50-4120-a9ec-ab6830b1fcf8" />
          </g>
          <g
             id="id-afc4557d-ba37-4f53-be96-28b079bac434">
            <path
               d="m 1.265625,-0.765625 1.0625,-1.03125 c 1.546875,-1.375 2.140625,-1.90625 2.140625,-2.90625 0,-1.140625 -0.890625,-1.9375 -2.109375,-1.9375 -1.125,0 -1.859375,0.921875 -1.859375,1.8125 0,0.546875 0.5,0.546875 0.53125,0.546875 0.171875,0 0.515625,-0.109375 0.515625,-0.53125 0,-0.25 -0.1875,-0.515625 -0.53125,-0.515625 -0.078125,0 -0.09375,0 -0.125,0.015625 0.21875,-0.65625 0.765625,-1.015625 1.34375,-1.015625 0.90625,0 1.328125,0.8125 1.328125,1.625 C 3.5625,-3.90625 3.078125,-3.125 2.515625,-2.5 l -1.90625,2.125 C 0.5,-0.265625 0.5,-0.234375 0.5,0 H 4.203125 L 4.46875,-1.734375 H 4.234375 C 4.171875,-1.4375 4.109375,-1 4,-0.84375 3.9375,-0.765625 3.28125,-0.765625 3.0625,-0.765625 Z m 0,0"
               id="id-62b882b2-5c38-4697-b3da-14572f97772a" />
          </g>
        </g>
      </defs>
      <g
         fill="#000000"
         fill-opacity="1"
         id="id-a05d2c9c-e004-47ac-aad9-d1c92c2e9fb6"
         transform="translate(-303.133,-135.54)">
        <g
           transform="translate(303.133,142.181)"
           id="g2446">
          <path
             d="m 2.9375,-6.375 c 0,-0.25 0,-0.265625 -0.234375,-0.265625 C 2.078125,-6 1.203125,-6 0.890625,-6 v 0.3125 c 0.203125,0 0.78125,0 1.296875,-0.265625 v 5.171875 c 0,0.359375 -0.03125,0.46875 -0.921875,0.46875 h -0.3125 V 0 c 0.34375,-0.03125 1.203125,-0.03125 1.609375,-0.03125 0.390625,0 1.265625,0 1.609375,0.03125 v -0.3125 h -0.3125 c -0.90625,0 -0.921875,-0.109375 -0.921875,-0.46875 z m 0,0"
             id="id-9732491d-a1ff-4274-8a8c-3012a51567e5" />
        </g>
      </g>
      <path
         fill="none"
         stroke-width="0.398"
         stroke-linecap="butt"
         stroke-linejoin="miter"
         stroke="#000000"
         stroke-opacity="1"
         stroke-miterlimit="10"
         d="M 0,10.889313 H 4.9804685"
         id="id-a88b4de1-aa87-42da-ad98-0068b708a472" />
      <g
         fill="#000000"
         fill-opacity="1"
         id="id-1aaad568-f102-40b3-b220-2da24faca48f"
         transform="translate(-303.133,-135.54)">
        <g
           transform="translate(303.133,155.755)"
           id="g2993">
          <path
             d="m 1.265625,-0.765625 1.0625,-1.03125 c 1.546875,-1.375 2.140625,-1.90625 2.140625,-2.90625 0,-1.140625 -0.890625,-1.9375 -2.109375,-1.9375 -1.125,0 -1.859375,0.921875 -1.859375,1.8125 0,0.546875 0.5,0.546875 0.53125,0.546875 0.171875,0 0.515625,-0.109375 0.515625,-0.53125 0,-0.25 -0.1875,-0.515625 -0.53125,-0.515625 -0.078125,0 -0.09375,0 -0.125,0.015625 0.21875,-0.65625 0.765625,-1.015625 1.34375,-1.015625 0.90625,0 1.328125,0.8125 1.328125,1.625 C 3.5625,-3.90625 3.078125,-3.125 2.515625,-2.5 l -1.90625,2.125 C 0.5,-0.265625 0.5,-0.234375 0.5,0 H 4.203125 L 4.46875,-1.734375 H 4.234375 C 4.171875,-1.4375 4.109375,-1 4,-0.84375 3.9375,-0.765625 3.28125,-0.765625 3.0625,-0.765625 Z m 0,0"
             id="id-535b7932-640d-4264-842d-09ab782211f3" />
        </g>
      </g>
    </g>
    <g
       transform="matrix(0.423334,0,0,0.423334,67.813071,232.15274)"
       ns1:version="1.9.0"
       ns1:texconverter="pdflatex"
       ns1:pdfconverter="inkscape"
       ns1:text="$$\\frac 1 2$$"
       ns1:preamble="/home/buyolitsez/.config/inkscape/extensions/textext/default_packages.tex"
       ns1:scale="1.2"
       ns1:alignment="middle center"
       ns1:stroke-to-path="0"
       ns1:inkscapeversion="1.3.2"
       id="g15"
       ns1:jacobian_sqrt="0.423334">
      <defs
         id="defs8">
        <g
           id="g8">
          <g
             id="g5">
            <path
               d="m 2.9375,-6.375 c 0,-0.25 0,-0.265625 -0.234375,-0.265625 C 2.078125,-6 1.203125,-6 0.890625,-6 v 0.3125 c 0.203125,0 0.78125,0 1.296875,-0.265625 v 5.171875 c 0,0.359375 -0.03125,0.46875 -0.921875,0.46875 h -0.3125 V 0 c 0.34375,-0.03125 1.203125,-0.03125 1.609375,-0.03125 0.390625,0 1.265625,0 1.609375,0.03125 v -0.3125 h -0.3125 c -0.90625,0 -0.921875,-0.109375 -0.921875,-0.46875 z m 0,0"
               id="path5" />
          </g>
          <g
             id="g7">
            <path
               d="m 1.265625,-0.765625 1.0625,-1.03125 c 1.546875,-1.375 2.140625,-1.90625 2.140625,-2.90625 0,-1.140625 -0.890625,-1.9375 -2.109375,-1.9375 -1.125,0 -1.859375,0.921875 -1.859375,1.8125 0,0.546875 0.5,0.546875 0.53125,0.546875 0.171875,0 0.515625,-0.109375 0.515625,-0.53125 0,-0.25 -0.1875,-0.515625 -0.53125,-0.515625 -0.078125,0 -0.09375,0 -0.125,0.015625 0.21875,-0.65625 0.765625,-1.015625 1.34375,-1.015625 0.90625,0 1.328125,0.8125 1.328125,1.625 C 3.5625,-3.90625 3.078125,-3.125 2.515625,-2.5 l -1.90625,2.125 C 0.5,-0.265625 0.5,-0.234375 0.5,0 H 4.203125 L 4.46875,-1.734375 H 4.234375 C 4.171875,-1.4375 4.109375,-1 4,-0.84375 3.9375,-0.765625 3.28125,-0.765625 3.0625,-0.765625 Z m 0,0"
               id="path7" />
          </g>
        </g>
      </defs>
      <g
         fill="#000000"
         fill-opacity="1"
         id="g12"
         transform="translate(-303.133,-135.54)">
        <g
           transform="translate(303.133,142.181)"
           id="g11">
          <path
             d="m 2.9375,-6.375 c 0,-0.25 0,-0.265625 -0.234375,-0.265625 C 2.078125,-6 1.203125,-6 0.890625,-6 v 0.3125 c 0.203125,0 0.78125,0 1.296875,-0.265625 v 5.171875 c 0,0.359375 -0.03125,0.46875 -0.921875,0.46875 h -0.3125 V 0 c 0.34375,-0.03125 1.203125,-0.03125 1.609375,-0.03125 0.390625,0 1.265625,0 1.609375,0.03125 v -0.3125 h -0.3125 c -0.90625,0 -0.921875,-0.109375 -0.921875,-0.46875 z m 0,0"
             id="path11" />
        </g>
      </g>
      <path
         fill="none"
         stroke-width="0.398"
         stroke-linecap="butt"
         stroke-linejoin="miter"
         stroke="#000000"
         stroke-opacity="1"
         stroke-miterlimit="10"
         d="M 0,10.889313 H 4.9804685"
         id="path12" />
      <g
         fill="#000000"
         fill-opacity="1"
         id="g14"
         transform="translate(-303.133,-135.54)">
        <g
           transform="translate(303.133,155.755)"
           id="g13">
          <path
             d="m 1.265625,-0.765625 1.0625,-1.03125 c 1.546875,-1.375 2.140625,-1.90625 2.140625,-2.90625 0,-1.140625 -0.890625,-1.9375 -2.109375,-1.9375 -1.125,0 -1.859375,0.921875 -1.859375,1.8125 0,0.546875 0.5,0.546875 0.53125,0.546875 0.171875,0 0.515625,-0.109375 0.515625,-0.53125 0,-0.25 -0.1875,-0.515625 -0.53125,-0.515625 -0.078125,0 -0.09375,0 -0.125,0.015625 0.21875,-0.65625 0.765625,-1.015625 1.34375,-1.015625 0.90625,0 1.328125,0.8125 1.328125,1.625 C 3.5625,-3.90625 3.078125,-3.125 2.515625,-2.5 l -1.90625,2.125 C 0.5,-0.265625 0.5,-0.234375 0.5,0 H 4.203125 L 4.46875,-1.734375 H 4.234375 C 4.171875,-1.4375 4.109375,-1 4,-0.84375 3.9375,-0.765625 3.28125,-0.765625 3.0625,-0.765625 Z m 0,0"
             id="path13" />
        </g>
      </g>
    </g>
  </g>
</svg>
